<?xml version="1.0" encoding="UTF-8"?>
<svg
  xmlns="http://www.w3.org/2000/svg"
  xmlns:xlink="http://www.w3.org/1999/xlink"
  width="0"
  height="0"
>
  <defs>
    <symbol fill="none" viewBox="0 0 24 24" id="arrow-down">
      <path
        fill="currentColor"
        d="m12.027 19.619-7.264-4.736v-4.32l5.536 3.328V4.387h3.456v9.472l5.472-3.296v4.32z"
      ></path>
    </symbol>
    <symbol fill="none" viewBox="0 0 24 25" id="arrow-left">
      <path
        fill="currentColor"
        d="m4.381 12.598 4.736 7.264h4.32l-3.328-5.536h9.504V10.87h-9.472l3.296-5.472h-4.32z"
      ></path>
    </symbol>
    <symbol fill="none" viewBox="0 0 24 25" id="arrow-right">
      <path
        fill="currentColor"
        d="m19.619 12.098-4.736 7.264h-4.32l3.328-5.536H4.387V10.37h9.472l-3.296-5.472h4.32z"
      ></path>
    </symbol>
    <symbol fill="none" viewBox="0 0 24 25" id="arrow-up">
      <path
        fill="currentColor"
        d="M12.027 4.506 4.763 9.242v4.32l5.536-3.328v9.504h3.456v-9.472l5.472 3.296v-4.32z"
      ></path>
    </symbol>
    <symbol fill="none" viewBox="0 0 22 25" id="assistant">
      <path
        fill="currentColor"
        fill-rule="evenodd"
        d="M4.875 4.625a.82.82 0 0 0-.619.293A1.08 1.08 0 0 0 4 5.625v13.586l2.006-2.293a.82.82 0 0 1 .619-.293h10.5a.82.82 0 0 0 .619-.293c.164-.187.256-.442.256-.707v-10c0-.265-.092-.52-.256-.707a.82.82 0 0 0-.619-.293zM3.019 3.504c.492-.563 1.16-.879 1.856-.879h12.25c.696 0 1.364.316 1.856.879s.769 1.325.769 2.121v10c0 .796-.277 1.559-.769 2.121s-1.16.879-1.856.879H6.987l-3.243 3.707c-.25.286-.627.372-.954.217s-.54-.52-.54-.924v-16c0-.796.277-1.559.769-2.121"
        clip-rule="evenodd"
      ></path>
    </symbol>
    <symbol fill="none" viewBox="0 0 24 25" id="close">
      <path
        fill="currentColor"
        d="m18.231 6.692-.795-.796-5.434 5.435-5.434-5.435-.797.794 5.435 5.436-5.434 5.434.794.796 5.436-5.435 5.433 5.434.796-.794-5.435-5.435z"
      ></path>
    </symbol>
    <symbol fill="none" viewBox="0 0 24 24" id="dismiss">
      <path
        fill="currentColor"
        fill-rule="evenodd"
        clip-rule="evenodd"
        d="M11.2524 12.6666L7.9999 9.4141C7.6094 9.0236 7.6094 8.3905 7.9999 7.9999C8.3905 7.6094 9.0236 7.6094 9.4141 7.9999L12.6666 11.2524L15.9191 7.9999C16.3096 7.6094 16.9427 7.6094 17.3332 7.9999C17.7238 8.3905 17.7238 9.0236 17.3332 9.4141L14.0808 12.6666L17.3332 15.9191C17.7238 16.3096 17.7238 16.9427 17.3332 17.3332C16.9427 17.7238 16.3096 17.7238 15.9191 17.3332L12.6666 14.0808L9.4141 17.3332C9.0236 17.7238 8.3905 17.7238 7.9999 17.3332C7.6094 16.9427 7.6094 16.3096 7.9999 15.9191L11.2524 12.6666Z"
      ></path>
    </symbol>
    <symbol fill="none" viewBox="0 0 24 25" id="contacts">
      <path
        fill="currentColor"
        fill-rule="evenodd"
        d="M5.44 3.564a1.5 1.5 0 0 1 1.06-.439H19v13H6.5a3.5 3.5 0 0 0-1.5.338V4.625c0-.398.158-.78.44-1.06M5 19.625a1.5 1.5 0 0 0 1.5 1.5H19v-3H6.5a1.5 1.5 0 0 0-1.5 1.5m16-2.5v-15a1 1 0 0 0-1-1H6.5a3.5 3.5 0 0 0-3.5 3.5v15a3.5 3.5 0 0 0 3.5 3.5H20a1 1 0 0 0 1-1z"
        clip-rule="evenodd"
      ></path>
    </symbol>
    <symbol fill="none" viewBox="0 0 24 25" id="download">
      <path
        fill="currentColor"
        fill-rule="evenodd"
        d="M7.487 15.943a.89.89 0 0 1 1.256 0l2.926 2.926 2.925-2.926a.888.888 0 0 1 1.257 1.257l-3.554 3.553a.89.89 0 0 1-1.256 0L7.487 17.2a.89.89 0 0 1 0-1.257"
        clip-rule="evenodd"
      ></path>
      <path
        fill="currentColor"
        fill-rule="evenodd"
        d="M11.669 11.241c.49 0 .888.398.888.889v7.995a.888.888 0 0 1-1.777 0V12.13c0-.491.398-.889.889-.889"
        clip-rule="evenodd"
      ></path>
      <path
        fill="currentColor"
        fill-rule="evenodd"
        d="M8.708 3.24a8 8 0 0 1 7.83 5.336h.46a5.332 5.332 0 0 1 5.055 7.035 5.33 5.33 0 0 1-1.984 2.656.888.888 0 1 1-1.022-1.454A3.554 3.554 0 0 0 17 10.353h-1.12a.89.89 0 0 1-.86-.668 6.219 6.219 0 1 0-10.681 5.667.888.888 0 0 1-1.331 1.177 7.995 7.995 0 0 1 5.7-13.289"
        clip-rule="evenodd"
      ></path>
    </symbol>
    <symbol fill="none" viewBox="0 0 24 25" id="email">
      <path
        fill="currentColor"
        d="M2 5.125v13.333h20V5.125zm16.067 2L12 11.858 5.933 7.125zM4 16.458V8.192l8 6.2 8-6.2v8.266z"
      ></path>
    </symbol>
    <symbol fill="none" viewBox="0 0 24 25" id="external">
      <path
        fill="currentColor"
        fill-rule="evenodd"
        d="M5 7.125a1 1 0 0 0-1 1v11a1 1 0 0 0 1 1h11a1 1 0 0 0 1-1v-6a1 1 0 1 1 2 0v6a3 3 0 0 1-3 3H5a3 3 0 0 1-3-3v-11a3 3 0 0 1 3-3h6a1 1 0 1 1 0 2zm9-4a1 1 0 0 1 1-1h6a1 1 0 0 1 1 1v6a1 1 0 1 1-2 0v-5h-5a1 1 0 0 1-1-1"
        clip-rule="evenodd"
      ></path>
      <path
        fill="currentColor"
        fill-rule="evenodd"
        d="M21.707 2.418a1 1 0 0 1 0 1.414l-11 11a1 1 0 0 1-1.414-1.414l11-11a1 1 0 0 1 1.414 0"
        clip-rule="evenodd"
      ></path>
    </symbol>
    <symbol fill="none" viewBox="0 0 24 25" id="help">
      <path
        fill="currentColor"
        fill-rule="evenodd"
        d="M12 3.125a9 9 0 1 0 0 18 9 9 0 0 0 0-18m-11 9c0-6.075 4.925-11 11-11s11 4.925 11 11-4.925 11-11 11-11-4.925-11-11m11.258-3.976a2 2 0 0 0-2.225 1.308 1 1 0 1 1-1.886-.664 4 4 0 0 1 7.773 1.333c0 1.53-1.135 2.54-1.945 3.081a8 8 0 0 1-1.686.848l-.035.013-.011.003-.004.002h-.002l-.317-.948c.316.949.317.948.318.948a1.001 1.001 0 0 1-.636-1.896h.001l.306.914-.306-.914.016-.006.074-.027a6 6 0 0 0 1.172-.6c.69-.46 1.055-.95 1.055-1.419v-.002a2 2 0 0 0-1.662-1.974M12 16.125a1 1 0 1 0 0 2h.01a1 1 0 1 0 0-2z"
        clip-rule="evenodd"
      ></path>
    </symbol>
    <symbol fill="none" viewBox="0 0 24 25" id="link">
      <path
        fill="currentColor"
        fill-rule="evenodd"
        d="M12.775 3a6 6 0 0 1 8.484 8.485l-.012.012-3 3a5.998 5.998 0 0 1-9.048-.648 1 1 0 0 1 1.602-1.198 4 4 0 0 0 6.032.432l2.993-2.994a4 4 0 0 0-5.656-5.654l-1.715 1.704a1 1 0 1 1-1.41-1.418z"
        clip-rule="evenodd"
      ></path>
      <path
        fill="currentColor"
        fill-rule="evenodd"
        d="M7.9 8.623a6 6 0 0 1 6.9 2.028 1 1 0 0 1-1.6 1.198 4 4 0 0 0-6.033-.432l-2.993 2.994a4 4 0 0 0 5.655 5.655l1.704-1.703a1 1 0 1 1 1.414 1.414L11.225 21.5a6 6 0 0 1-8.484-8.484l.012-.012 3-3a6 6 0 0 1 2.146-1.38"
        clip-rule="evenodd"
      ></path>
    </symbol>
    <symbol fill="none" viewBox="0 0 24 25" id="menu">
      <path
        fill="currentColor"
        fill-rule="evenodd"
        d="M2 12.25a1 1 0 0 1 1-1h18a1 1 0 1 1 0 2H3a1 1 0 0 1-1-1m0-6a1 1 0 0 1 1-1h18a1 1 0 1 1 0 2H3a1 1 0 0 1-1-1m0 12a1 1 0 0 1 1-1h18a1 1 0 1 1 0 2H3a1 1 0 0 1-1-1"
        clip-rule="evenodd"
      ></path>
    </symbol>
    <symbol fill="none" viewBox="0 0 24 25" id="payment">
      <path
        fill="currentColor"
        fill-rule="evenodd"
        d="M4 6.028a.89.89 0 0 0-.889.889v10.666c0 .491.398.89.889.89h16a.89.89 0 0 0 .889-.89V6.917a.89.89 0 0 0-.889-.89zm-2.667.889A2.667 2.667 0 0 1 4 4.25h16a2.667 2.667 0 0 1 2.667 2.667v10.666A2.667 2.667 0 0 1 20 20.25H4a2.667 2.667 0 0 1-2.667-2.667z"
        clip-rule="evenodd"
      ></path>
      <path
        fill="currentColor"
        fill-rule="evenodd"
        d="M1.333 10.472a.89.89 0 0 1 .89-.889h19.555a.889.889 0 0 1 0 1.778H2.222a.89.89 0 0 1-.889-.889"
        clip-rule="evenodd"
      ></path>
    </symbol>
    <symbol fill="none" viewBox="0 0 24 25" id="products">
      <path
        fill="currentColor"
        fill-rule="evenodd"
        d="M6.634 3.96A1 1 0 0 1 8 3.594l9 5.19a1 1 0 0 1-1 1.732l-9-5.19a1 1 0 0 1-.366-1.366"
        clip-rule="evenodd"
      ></path>
      <path
        fill="currentColor"
        fill-rule="evenodd"
        d="M10.502 1.653a3 3 0 0 1 2.996 0l.002.001 7 4A3 3 0 0 1 22 8.249v8.001a3 3 0 0 1-1.5 2.596l-.004.002-6.996 3.998-.002.001a3 3 0 0 1-2.996 0l-.002-.001-6.996-3.998-.004-.002A3 3 0 0 1 2 16.251V8.25a3 3 0 0 1 1.5-2.596l.004-.002zM12 3.252a1 1 0 0 0-.5.134l-.004.002L4.5 7.386a1.01 1.01 0 0 0-.5.865v7.998a1 1 0 0 0 .498.864l7.002 4.001a1 1 0 0 0 1 0l.004-.002 6.996-3.998a1.01 1.01 0 0 0 .5-.865V8.251a1 1 0 0 0-.498-.864L12.5 3.386a1 1 0 0 0-.5-.134"
        clip-rule="evenodd"
      ></path>
      <path
        fill="currentColor"
        fill-rule="evenodd"
        d="M2.404 6.71a1 1 0 0 1 1.367-.366L12 11.104l8.23-4.76a1 1 0 1 1 1 1.732l-8.73 5.05a1 1 0 0 1-1 0l-8.73-5.05a1 1 0 0 1-.366-1.367"
        clip-rule="evenodd"
      ></path>
      <path
        fill="currentColor"
        fill-rule="evenodd"
        d="M12 11.25a1 1 0 0 1 1 1v10.08a1 1 0 1 1-2 0V12.25a1 1 0 0 1 1-1"
        clip-rule="evenodd"
      ></path>
    </symbol>
    <symbol fill="none" viewBox="0 0 24 25" id="refresh">
      <g
        fill="currentColor"
        fill-rule="evenodd"
        clip-path="url(#a)"
        clip-rule="evenodd"
      >
        <path
          d="M1 3.25a1 1 0 0 1 1 1v5h5a1 1 0 1 1 0 2H1a1 1 0 0 1-1-1v-6a1 1 0 0 1 1-1m15 11a1 1 0 0 1 1-1h6a1 1 0 0 1 1 1v6a1 1 0 1 1-2 0v-5h-5a1 1 0 0 1-1-1"
        ></path>
        <path
          d="M9.227 2.646a10 10 0 0 1 12.206 6.27 1 1 0 1 1-1.886.668 8 8 0 0 0-13.2-2.987l-.022.022-4.64 4.36A1 1 0 1 1 .315 9.52l4.63-4.35a10 10 0 0 1 4.282-2.525m14.502 10.92a1 1 0 0 1-.044 1.413l-4.63 4.35a10 10 0 0 1-16.488-3.745 1 1 0 0 1 1.886-.668 8 8 0 0 0 13.2 2.987l.022-.022 4.64-4.36a1 1 0 0 1 1.414.044"
        ></path>
      </g>
      <defs>
        <clipPath id="a">
          <path fill="currentColor" d="M0 .25h24v24H0z"></path>
        </clipPath>
      </defs>
    </symbol>
    <symbol fill="none" viewBox="0 0 24 25" id="scheduler">
      <path
        fill="currentColor"
        fill-rule="evenodd"
        d="M17 2.25a1 1 0 1 0-2 0v1H9v-1a1 1 0 0 0-2 0v1H5a3 3 0 0 0-3 3v14a3 3 0 0 0 3 3h14a3 3 0 0 0 3-3v-14a3 3 0 0 0-3-3h-2zm3 7v-3a1 1 0 0 0-1-1h-2v1a1 1 0 1 1-2 0v-1H9v1a1 1 0 1 1-2 0v-1H5a1 1 0 0 0-1 1v3zm-16 2h16v9a1 1 0 0 1-1 1H5a1 1 0 0 1-1-1z"
        clip-rule="evenodd"
      ></path>
    </symbol>
    <symbol fill="none" viewBox="0 0 24 25" id="settings">
      <path
        fill="currentColor"
        fill-rule="evenodd"
        d="M12 10.25a2 2 0 1 0 0 4 2 2 0 0 0 0-4m-4 2a4 4 0 1 1 8 0 4 4 0 0 1-8 0"
        clip-rule="evenodd"
      ></path>
      <path
        fill="currentColor"
        fill-rule="evenodd"
        d="M12 2.25a1 1 0 0 0-1 1v.174a2.65 2.65 0 0 1-1.606 2.425 1 1 0 0 1-.264.073 2.65 2.65 0 0 1-2.73-.607l-.007-.008-.06-.06a1.003 1.003 0 0 0-1.415 0h-.001a1 1 0 0 0 0 1.415l.068.069a2.65 2.65 0 0 1 .542 2.894 2.65 2.65 0 0 1-2.414 1.705H3a1 1 0 0 0 0 2h.174a2.65 2.65 0 0 1 2.423 1.601 2.65 2.65 0 0 1-.532 2.918l-.008.008-.06.06a1 1 0 0 0-.217 1.09 1 1 0 0 0 .217.325v.001a1 1 0 0 0 1.415 0l.069-.068a2.65 2.65 0 0 1 2.894-.543 2.65 2.65 0 0 1 1.705 2.415v.113a1 1 0 0 0 2 0v-.174a2.65 2.65 0 0 1 1.601-2.423 2.65 2.65 0 0 1 2.918.532l.008.008.06.06a1 1 0 0 0 1.415 0h.001a1 1 0 0 0 0-1.416l-.068-.068a2.65 2.65 0 0 1-.532-2.918 2.65 2.65 0 0 1 2.423-1.601H21a1 1 0 0 0 0-2h-.174a2.65 2.65 0 0 1-2.425-1.606 1 1 0 0 1-.073-.264 2.65 2.65 0 0 1 .607-2.73l.008-.007.06-.06a1 1 0 0 0 0-1.415v-.001a1 1 0 0 0-1.416 0l-.068.068a2.65 2.65 0 0 1-2.918.532A2.65 2.65 0 0 1 13 3.344V3.25a1 1 0 0 0-1-1M9.879 1.129A3 3 0 0 1 15 3.25v.087a.65.65 0 0 0 .394.594l.01.004a.65.65 0 0 0 .714-.127l.055-.055a3 3 0 0 1 4.895 3.27 3 3 0 0 1-.65.974l-.056.055a.65.65 0 0 0-.127.714q.043.096.064.2a.65.65 0 0 0 .534.284H21a3 3 0 1 1 0 6h-.087a.65.65 0 0 0-.594.394l-.004.01a.65.65 0 0 0 .127.714l.055.055a3 3 0 0 1 0 4.245l-.707-.708.707.707a3 3 0 0 1-4.244 0l-.055-.055a.65.65 0 0 0-.714-.127l-.01.004a.65.65 0 0 0-.394.593v.168a3 3 0 0 1-6 0v-.076a.65.65 0 0 0-.425-.585l-.059-.024a.65.65 0 0 0-.714.127l-.054.055a3.002 3.002 0 1 1-4.245-4.244l.055-.055a.65.65 0 0 0 .127-.714l-.004-.01a.65.65 0 0 0-.594-.394H3a3 3 0 0 1 0-6h.076a.65.65 0 0 0 .585-.425l.024-.059a.65.65 0 0 0-.127-.714l-.055-.054a3 3 0 1 1 4.244-4.245l.055.055a.65.65 0 0 0 .714.127 1 1 0 0 1 .2-.064A.65.65 0 0 0 9 3.417V3.25a3 3 0 0 1 .879-2.121"
        clip-rule="evenodd"
      ></path>
    </symbol>
    <symbol fill="none" viewBox="0 0 24 25" id="share">
      <path
        fill="currentColor"
        d="M13.833 9.25a12.81 12.81 0 0 0-12.425 9.7l-.075.3c3.204-3.2 7.547-5 12.075-5h.425v5l7.5-7.5-7.5-7.5z"
      ></path>
    </symbol>
    <symbol fill="none" viewBox="0 0 24 25" id="site">
      <path
        fill="currentColor"
        fill-rule="evenodd"
        d="M7 3.25a1 1 0 0 0-1 1v16a1 1 0 0 0 1 1h10a1 1 0 0 0 1-1v-16a1 1 0 0 0-1-1zm-3 1a3 3 0 0 1 3-3h10a3 3 0 0 1 3 3v16a3 3 0 0 1-3 3H7a3 3 0 0 1-3-3z"
        clip-rule="evenodd"
      ></path>
      <path
        fill="currentColor"
        fill-rule="evenodd"
        d="M11 18.25a1 1 0 0 1 1-1h.009a1 1 0 1 1 0 2H12a1 1 0 0 1-1-1"
        clip-rule="evenodd"
      ></path>
    </symbol>
    <symbol fill="none" viewBox="0 0 24 25" id="wellness">
      <path
        fill="currentColor"
        fill-rule="evenodd"
        d="M17 9.25a1 1 0 0 1 1-1h1a5 5 0 1 1 0 10h-1a1 1 0 1 1 0-2h1a3 3 0 0 0 0-6h-1a1 1 0 0 1-1-1"
        clip-rule="evenodd"
      ></path>
      <path
        fill="currentColor"
        fill-rule="evenodd"
        d="M1 9.25a1 1 0 0 1 1-1h16a1 1 0 0 1 1 1v9a5 5 0 0 1-5 5H6a5 5 0 0 1-5-5zm2 1v8a3 3 0 0 0 3 3h8a3 3 0 0 0 3-3v-8zm3-9a1 1 0 0 1 1 1v3a1 1 0 1 1-2 0v-3a1 1 0 0 1 1-1m4 0a1 1 0 0 1 1 1v3a1 1 0 1 1-2 0v-3a1 1 0 0 1 1-1m4 0a1 1 0 0 1 1 1v3a1 1 0 1 1-2 0v-3a1 1 0 0 1 1-1"
        clip-rule="evenodd"
      ></path>
    </symbol>
    <symbol fill="none" viewBox="0 0 18 18" id="error-triangle">
      <path
        fill="currentColor"
        fill-rule="evenodd"
        d="m10.704 3.962 5.005 7.997A1.999 1.999 0 0 1 14 14.997L4 15a2 2 0 0 1-1.71-3.038l4.995-8a2 2 0 0 1 3.419 0M9 6a1 1 0 0 0-1 1v2a1 1 0 1 0 2 0V7a1 1 0 0 0-1-1m0 5a1 1 0 1 0 0 2 1 1 0 0 0 0-2"
        clip-rule="evenodd"
      ></path>
    </symbol>
    <symbol fill="none" viewBox="0 0 18 18" id="info-flag">
      <path
        fill="currentColor"
        fill-rule="evenodd"
        d="M6 11v4H5V4h8.5a.5.5 0 0 1 .407.79L12.1 7.5l1.829 2.744a.5.5 0 0 1-.43.756z"
        clip-rule="evenodd"
      ></path>
    </symbol>
    <symbol fill="none" viewBox="0 0 18 18" id="success-circle">
      <path
        fill="currentColor"
        fill-rule="evenodd"
        d="M9 16A7 7 0 1 1 9 2a7 7 0 0 1 0 14m1.94-9L8.5 9.44 7.06 8A.75.75 0 0 0 6 9.06l2.5 2.5 3.5-3.5A.75.75 0 1 0 10.94 7"
        clip-rule="evenodd"
      ></path>
    </symbol>
    <symbol fill="none" viewBox="0 0 18 18" id="warning-circle">
      <path
        fill="currentColor"
        fill-rule="evenodd"
        d="M11.707 2 16 6.293v5.414L11.707 16H6.293L2 11.707V6.293L6.293 2zM9 10a1 1 0 1 0 0 2 1 1 0 0 0 0-2m0-5a1 1 0 0 0-.993.883L8 6v2a1 1 0 0 0 1.993.117L10 8V6a1 1 0 0 0-1-1"
        clip-rule="evenodd"
      ></path>
    </symbol>
    <symbol fill="none" viewBox="0 0 18 18" id="info-flag">
      <path
        fill="currentColor"
        fill-rule="evenodd"
        d="M6 11v4H5V4h8.5a.5.5 0 0 1 .407.79L12.1 7.5l1.829 2.744a.5.5 0 0 1-.43.756z"
        clip-rule="evenodd"
      ></path>
    </symbol>
    <symbol fill="none" viewBox="0 0 18 18" id="info-circle">
      <path
        fill="currentColor"
        fill-rule="evenodd"
        d="M9 16A7 7 0 1 1 9 2a7 7 0 0 1 0 14m0-1A6 6 0 1 0 9 3a6 6 0 0 0 0 12M8 8h2v4l1 1H7l1-1V8.857H7zm1-3a1 1 0 1 1 0 2 1 1 0 0 1 0-2"
        clip-rule="evenodd"
      ></path>
    </symbol>
    <symbol fill="none" viewBox="0 0 18 18" id="article">
      <path
        fill="currentColor"
        fill-rule="evenodd"
        d="M6 4h6a1 1 0 0 1 1 1v9a1 1 0 0 1-1 1H6a1 1 0 0 1-1-1V5a1 1 0 0 1 1-1m0 1v9h6V5zm1 2h4v1H7zm0 2h4v1H7zm0 2h4v1H7z"
        clip-rule="evenodd"
      ></path>
    </symbol>
    <symbol fill="none" viewBox="0 0 18 18" id="complete">
      <path
        fill="currentColor"
        fill-rule="evenodd"
        d="M9 16A7 7 0 1 1 9 2a7 7 0 0 1 0 14m0-1A6 6 0 1 0 9 3a6 6 0 0 0 0 12m1.94-8A.75.75 0 0 1 12 8.06l-3.5 3.5L6 9.06A.75.75 0 0 1 7.06 8L8.5 9.44z"
        clip-rule="evenodd"
      ></path>
    </symbol>
    <symbol fill="none" viewBox="0 0 18 18" id="globe">
      <path
        fill="currentColor"
        d="M9 16A7 7 0 1 1 9 2a7 7 0 0 1 0 14m6-7a6 6 0 0 0-.341-2h-1.825c.108.634.166 1.305.166 2s-.058 1.366-.166 2h1.825A6 6 0 0 0 15 9m-2.385 3c-.26.957-.64 1.794-1.106 2.452A6.03 6.03 0 0 0 14.197 12zm-7.45-1A12 12 0 0 1 5 9c0-.695.058-1.366.166-2H3.34A6 6 0 0 0 3 9c0 .701.12 1.374.341 2zm1.326 3.452c-.466-.658-.846-1.495-1.106-2.452H3.803a6.03 6.03 0 0 0 2.688 2.452M11.819 11c.116-.622.181-1.294.181-2a11 11 0 0 0-.181-2H6.18A11 11 0 0 0 6 9c0 .706.065 1.378.181 2zM9 15c1.016 0 2.026-1.188 2.576-3H6.424c.55 1.812 1.56 3 2.576 3m2.51-11.452c.465.658.845 1.495 1.105 2.452h1.582a6.03 6.03 0 0 0-2.688-2.452M5.384 6c.26-.957.64-1.794 1.106-2.452A6.03 6.03 0 0 0 3.803 6zm6.19 0C11.026 4.188 10.017 3 9 3S6.974 4.188 6.424 6z"
      ></path>
    </symbol>
    <symbol fill="none" viewBox="0 0 18 18" id="money">
      <path
        fill="currentColor"
        fill-rule="evenodd"
        d="M8.5 1a7.5 7.5 0 1 1-7.35 9h1.024A6.5 6.5 0 1 0 8.5 2C5.796 2 3.717 3.651 2.796 6H5v1H1V3h1v2.3C3.127 2.758 5.503 1 8.5 1M6 10h1a1 1 0 0 0 1 1h1a1 1 0 1 0 0-2H8a2 2 0 1 1 0-4V4h1v1a2 2 0 0 1 2 2h-1a1 1 0 0 0-1-1H8a1 1 0 0 0 0 2h1a2 2 0 1 1 0 4v1H8v-1a2 2 0 0 1-2-2"
        clip-rule="evenodd"
      ></path>
    </symbol>
    <symbol fill="none" viewBox="0 0 18 18" id="statistics">
      <path
        fill="currentColor"
        fill-rule="evenodd"
        d="M3 15v-1h1v-4a1 1 0 0 1 1-1h2V8a1 1 0 0 1 1-1h2V5a1 1 0 0 1 1-1h2a1 1 0 0 1 1 1v9h1v1zm8-10v9h2V5zM8 8v6h2V8zm-3 2v4h2v-4z"
        clip-rule="evenodd"
      ></path>
    </symbol>
  </defs>
</svg>
