<?xml version="1.0" encoding="UTF-8"?>
<svg
  xmlns="http://www.w3.org/2000/svg"
  xmlns:xlink="http://www.w3.org/1999/xlink"
  width="0"
  height="0"
>
  <defs>
    <symbol fill="none" viewBox="0 0 24 24" id="share">
      <path
        fill="currentColor"
        d="M13.833 9a12.81 12.81 0 0 0-12.425 9.7l-.075.3c3.204-3.2 7.547-5 12.075-5h.425v5l7.5-7.5-7.5-7.5z"
      ></path>
    </symbol>
    <symbol fill="none" viewBox="0 0 24 24" id="arrow-down">
      <path
        fill="currentColor"
        d="m12.027 19.619-7.264-4.736v-4.32l5.536 3.328V4.387h3.456v9.472l5.472-3.296v4.32z"
      ></path>
    </symbol>
    <symbol fill="none" viewBox="0 0 24 24" id="arrow-left">
      <path
        fill="currentColor"
        d="m4.381 11.973 4.736 7.264h4.32l-3.328-5.536h9.504v-3.456h-9.472l3.296-5.472h-4.32z"
      ></path>
    </symbol>
    <symbol fill="none" viewBox="0 0 24 24" id="arrow-right">
      <path
        fill="currentColor"
        d="m19.619 11.973-4.736 7.264h-4.32l3.328-5.536H4.387v-3.456h9.472l-3.296-5.472h4.32z"
      ></path>
    </symbol>

    <symbol fill="none" viewBox="0 0 24 24" id="assistant">
      <path
        fill="currentColor"
        fill-rule="evenodd"
        d="M5 4a1 1 0 0 0-1 1v13.586l2.293-2.293A1 1 0 0 1 7 16h12a1 1 0 0 0 1-1V5a1 1 0 0 0-1-1zM2.879 2.879A3 3 0 0 1 5 2h14a3 3 0 0 1 3 3v10a3 3 0 0 1-3 3H7.414l-3.707 3.707A1 1 0 0 1 2 21V5a3 3 0 0 1 .879-2.121"
        clip-rule="evenodd"
      ></path>
    </symbol>
    <symbol fill="none" viewBox="0 0 24 24" id="close">
      <path
        fill="currentColor"
        d="m18.231 6.567-.795-.796-5.434 5.435L6.568 5.77l-.797.795L11.206 12l-5.434 5.434.794.796 5.436-5.435 5.433 5.434.796-.794L12.796 12z"
      ></path>
    </symbol>
    <symbol fill="none" viewBox="0 0 24 24" id="contacts">
      <path
        fill="currentColor"
        fill-rule="evenodd"
        d="M6.5 18A1.5 1.5 0 0 0 5 19.5a1 1 0 1 1-2 0A3.5 3.5 0 0 1 6.5 16H20a1 1 0 1 1 0 2z"
        clip-rule="evenodd"
      ></path>
      <path
        fill="currentColor"
        fill-rule="evenodd"
        d="M6.5 3A1.5 1.5 0 0 0 5 4.5v15A1.5 1.5 0 0 0 6.5 21H19V3zm-2.475-.975A3.5 3.5 0 0 1 6.5 1H20a1 1 0 0 1 1 1v20a1 1 0 0 1-1 1H6.5A3.5 3.5 0 0 1 3 19.5v-15a3.5 3.5 0 0 1 1.025-2.475"
        clip-rule="evenodd"
      ></path>
    </symbol>
    <symbol fill="none" viewBox="0 0 24 24" id="download">
      <path
        fill="currentColor"
        fill-rule="evenodd"
        d="M7.487 15.818a.889.889 0 0 1 1.256 0l2.926 2.926 2.925-2.926a.888.888 0 0 1 1.257 1.257l-3.554 3.553a.888.888 0 0 1-1.256 0l-3.554-3.553a.889.889 0 0 1 0-1.257"
        clip-rule="evenodd"
      ></path>
      <path
        fill="currentColor"
        fill-rule="evenodd"
        d="M11.669 11.116c.49 0 .888.398.888.889V20a.888.888 0 1 1-1.777 0v-7.995c0-.491.398-.889.889-.889"
        clip-rule="evenodd"
      ></path>
      <path
        fill="currentColor"
        fill-rule="evenodd"
        d="M8.708 3.115a7.996 7.996 0 0 1 7.83 5.336h.46a5.332 5.332 0 0 1 5.055 7.035 5.33 5.33 0 0 1-1.984 2.656.888.888 0 1 1-1.022-1.454A3.554 3.554 0 0 0 17 10.228h-1.12a.888.888 0 0 1-.86-.668 6.219 6.219 0 1 0-10.681 5.667.888.888 0 0 1-1.331 1.177 7.995 7.995 0 0 1 5.7-13.289"
        clip-rule="evenodd"
      ></path>
    </symbol>
    <symbol fill="none" viewBox="0 0 24 24" id="email">
      <path
        fill="currentColor"
        d="M2 5v13.333h20V5zm16.067 2L12 11.733 5.933 7zM4 16.333V8.067l8 6.2 8-6.2v8.266z"
      ></path>
    </symbol>
    <symbol fill="none" viewBox="0 0 24 24" id="external">
      <path
        fill="currentColor"
        fill-rule="evenodd"
        d="M5 7a1 1 0 0 0-1 1v11a1 1 0 0 0 1 1h11a1 1 0 0 0 1-1v-6a1 1 0 1 1 2 0v6a3 3 0 0 1-3 3H5a3 3 0 0 1-3-3V8a3 3 0 0 1 3-3h6a1 1 0 1 1 0 2zm9-4a1 1 0 0 1 1-1h6a1 1 0 0 1 1 1v6a1 1 0 1 1-2 0V4h-5a1 1 0 0 1-1-1"
        clip-rule="evenodd"
      ></path>
      <path
        fill="currentColor"
        fill-rule="evenodd"
        d="M21.707 2.293a1 1 0 0 1 0 1.414l-11 11a1 1 0 0 1-1.414-1.414l11-11a1 1 0 0 1 1.414 0"
        clip-rule="evenodd"
      ></path>
    </symbol>
    <symbol fill="none" viewBox="0 0 24 24" id="facebook">
      <path
        fill="currentColor"
        d="M13.315 23.5H8.437V11.999H6V8.035h2.437v-2.38C8.437 2.423 9.813.5 13.723.5h3.255v3.964h-2.035c-1.522 0-1.622.554-1.622 1.588l-.007 1.984H17l-.431 3.963h-3.255z"
      ></path>
    </symbol>
    <symbol fill="none" viewBox="0 0 24 24" id="help">
      <path
        fill="currentColor"
        fill-rule="evenodd"
        d="M12 3a9 9 0 1 0 0 18 9 9 0 0 0 0-18M1 12C1 5.925 5.925 1 12 1s11 4.925 11 11-4.925 11-11 11S1 18.075 1 12"
        clip-rule="evenodd"
      ></path>
      <path
        fill="currentColor"
        fill-rule="evenodd"
        d="M12.258 8.024a2 2 0 0 0-2.225 1.308 1 1 0 1 1-1.886-.664 4 4 0 0 1 7.773 1.333c0 1.53-1.135 2.54-1.945 3.081a8.036 8.036 0 0 1-1.686.848l-.035.013-.011.003-.004.002h-.002L11.92 13l.318.948a1.001 1.001 0 0 1-.635-1.896l.306.914-.306-.914m0 0 .016-.006.074-.027a6.051 6.051 0 0 0 1.172-.6c.69-.46 1.055-.95 1.055-1.419v-.002a2 2 0 0 0-1.662-1.974M11 17a1 1 0 0 1 1-1h.01a1 1 0 1 1 0 2H12a1 1 0 0 1-1-1"
        clip-rule="evenodd"
      ></path>
    </symbol>
    <symbol fill="none" viewBox="0 0 24 24" id="instagram">
      <path
        fill="currentColor"
        d="M12 1.333c-2.895 0-3.259.014-4.396.064-1.137.054-1.912.232-2.59.496a5.223 5.223 0 0 0-1.89 1.231 5.236 5.236 0 0 0-1.23 1.89c-.265.677-.445 1.453-.497 2.586-.05 1.14-.064 1.503-.064 4.401 0 2.896.014 3.259.064 4.396.054 1.136.232 1.911.496 2.59a5.239 5.239 0 0 0 1.231 1.889 5.206 5.206 0 0 0 1.888 1.23c.68.265 1.453.445 2.59.497 1.138.05 1.5.064 4.398.064 2.897 0 3.259-.014 4.397-.064 1.135-.054 1.912-.232 2.591-.496a5.22 5.22 0 0 0 1.888-1.231 5.24 5.24 0 0 0 1.23-1.89c.263-.678.443-1.453.497-2.589.05-1.137.064-1.5.064-4.397 0-2.897-.014-3.26-.064-4.399-.054-1.134-.234-1.91-.496-2.588a5.235 5.235 0 0 0-1.231-1.889 5.215 5.215 0 0 0-1.89-1.23c-.68-.265-1.455-.445-2.59-.497-1.139-.05-1.5-.064-4.399-.064zm-.956 1.923h.957c2.848 0 3.186.01 4.31.061 1.04.047 1.605.222 1.981.367a3.31 3.31 0 0 1 1.227.799c.373.373.604.728.797 1.226.147.375.32.94.367 1.98.052 1.124.062 1.462.062 4.308 0 2.847-.01 3.186-.062 4.31-.047 1.04-.222 1.604-.367 1.98a3.293 3.293 0 0 1-.799 1.225 3.296 3.296 0 0 1-1.226.797c-.374.147-.939.32-1.98.368-1.124.051-1.462.063-4.31.063s-3.186-.012-4.31-.063c-1.04-.048-1.604-.221-1.98-.368a3.303 3.303 0 0 1-1.227-.797 3.306 3.306 0 0 1-.8-1.227c-.145-.374-.32-.94-.367-1.98-.05-1.124-.061-1.461-.061-4.31 0-2.848.01-3.184.061-4.308.048-1.04.222-1.606.368-1.982a3.31 3.31 0 0 1 .799-1.226 3.296 3.296 0 0 1 1.227-.798c.376-.146.94-.32 1.98-.368.984-.045 1.365-.058 3.353-.06zm6.65 1.77a1.28 1.28 0 1 0 0 2.562 1.28 1.28 0 0 0 0-2.561m-5.693 1.497a5.479 5.479 0 1 0-.17 10.955A5.479 5.479 0 0 0 12 6.523m0 1.921a3.556 3.556 0 1 1 0 7.112 3.556 3.556 0 0 1 0-7.112"
      ></path>
    </symbol>
    <symbol fill="none" viewBox="0 0 24 24" id="link">
      <path
        fill="currentColor"
        fill-rule="evenodd"
        d="M12.775 2.75a6 6 0 0 1 8.484 8.485l-.012.012-3 3a5.998 5.998 0 0 1-9.048-.648 1 1 0 0 1 1.602-1.198 3.999 3.999 0 0 0 6.032.432l2.993-2.994a4 4 0 0 0-5.656-5.654l-1.715 1.704a1 1 0 1 1-1.41-1.418z"
        clip-rule="evenodd"
      ></path>
      <path
        fill="currentColor"
        fill-rule="evenodd"
        d="M7.9 8.373a6 6 0 0 1 6.9 2.028 1 1 0 0 1-1.6 1.198 4 4 0 0 0-6.033-.432l-2.993 2.994a4 4 0 0 0 5.655 5.655l1.704-1.703a1 1 0 0 1 1.414 1.414l-1.722 1.722a6 6 0 0 1-8.484-8.484l.012-.012 3-3a6 6 0 0 1 2.146-1.38"
        clip-rule="evenodd"
      ></path>
    </symbol>
    <symbol fill="none" viewBox="0 0 24 24" id="linkedin">
      <path
        fill="currentColor"
        d="M2.502 8.41h3.9V22h-3.9V8.4zm1.85-1.7h-.02a2.25 2.25 0 0 1-2.33-2.35c0-1.34.94-2.36 2.38-2.36s2.32 1.02 2.35 2.36c0 1.31-.91 2.35-2.38 2.35M22.002 22h-4.42v-7.03c0-1.84-.7-3.1-2.21-3.1-1.17 0-1.81.85-2.11 1.67-.12.29-.1.7-.1 1.1V22h-4.38s.06-12.45 0-13.59h4.38v2.14c.26-.94 1.66-2.27 3.9-2.27 2.76 0 4.94 1.96 4.94 6.16z"
      ></path>
    </symbol>
    <symbol fill="none" viewBox="0 0 24 24" id="menu">
      <path
        fill="currentColor"
        fill-rule="evenodd"
        d="M2 12a1 1 0 0 1 1-1h18a1 1 0 1 1 0 2H3a1 1 0 0 1-1-1m0-6a1 1 0 0 1 1-1h18a1 1 0 1 1 0 2H3a1 1 0 0 1-1-1m0 12a1 1 0 0 1 1-1h18a1 1 0 1 1 0 2H3a1 1 0 0 1-1-1"
        clip-rule="evenodd"
      ></path>
    </symbol>
    <symbol fill="none" viewBox="0 0 24 24" id="payment">
      <path
        fill="currentColor"
        fill-rule="evenodd"
        d="M4 5.778a.889.889 0 0 0-.889.889v10.666c0 .491.398.89.889.89h16a.89.89 0 0 0 .889-.89V6.667a.889.889 0 0 0-.889-.89zm-2.667.889A2.667 2.667 0 0 1 4 4h16a2.667 2.667 0 0 1 2.667 2.667v10.666A2.667 2.667 0 0 1 20 20H4a2.667 2.667 0 0 1-2.667-2.667z"
        clip-rule="evenodd"
      ></path>
      <path
        fill="currentColor"
        fill-rule="evenodd"
        d="M1.333 10.222a.89.89 0 0 1 .89-.889h19.555a.889.889 0 0 1 0 1.778H2.222a.889.889 0 0 1-.889-.889"
        clip-rule="evenodd"
      ></path>
    </symbol>
    <symbol fill="none" viewBox="0 0 24 24" id="pinterest">
      <path
        fill="currentColor"
        d="M11.989 1C5.919 1 1 5.92 1 11.988c0 4.656 2.895 8.632 6.983 10.232-.096-.87-.182-2.203.038-3.152.2-.86 1.289-5.461 1.289-5.461s-.33-.66-.33-1.633c0-1.524.887-2.668 1.988-2.668.938 0 1.391.705 1.391 1.547 0 .944-.598 2.353-.909 3.66-.261 1.093.55 1.984 1.627 1.984 1.95 0 3.454-2.058 3.454-5.03 0-2.622-1.891-4.463-4.59-4.463-3.126 0-4.959 2.349-4.959 4.766 0 .947.361 1.964.815 2.513.09.11.103.206.078.316a227.87 227.87 0 0 1-.306 1.25c-.049.205-.158.248-.368.15-1.37-.632-2.23-2.638-2.23-4.258 0-3.462 2.519-6.648 7.26-6.648 3.812 0 6.776 2.72 6.776 6.346 0 3.79-2.39 6.84-5.714 6.84-1.112 0-2.157-.576-2.528-1.264l-.686 2.61c-.247.959-.92 2.157-1.373 2.885 1.029.316 2.113.49 3.254.49 6.056 0 10.986-4.918 10.986-10.988 0-6.071-4.93-10.988-10.986-10.988z"
      ></path>
    </symbol>
    <symbol fill="none" viewBox="0 0 24 24" id="products">
      <path
        fill="currentColor"
        fill-rule="evenodd"
        d="M6.634 3.71A1 1 0 0 1 8 3.344l9 5.19a1 1 0 0 1-1 1.732l-9-5.19a1 1 0 0 1-.366-1.366"
        clip-rule="evenodd"
      ></path>
      <path
        fill="currentColor"
        fill-rule="evenodd"
        d="M10.502 1.403a3 3 0 0 1 2.996 0l.002.001 7 4A3 3 0 0 1 22 7.999V16a3.003 3.003 0 0 1-1.5 2.596l-.004.002-6.996 3.998-.002.001a3 3 0 0 1-2.996 0l-.002-.001-6.996-3.998-.004-.002A3 3 0 0 1 2 16.001V8a3.004 3.004 0 0 1 1.5-2.596l.004-.002zM12 3.002a1 1 0 0 0-.5.134l-.004.002L4.5 7.136a1.007 1.007 0 0 0-.5.865v7.998a1 1 0 0 0 .498.864l7.002 4.001a1 1 0 0 0 1 0l.004-.002 6.996-3.998a1.007 1.007 0 0 0 .5-.865V8.001a1 1 0 0 0-.498-.864L12.5 3.136a1 1 0 0 0-.5-.134"
        clip-rule="evenodd"
      ></path>
      <path
        fill="currentColor"
        fill-rule="evenodd"
        d="M2.404 6.46a1 1 0 0 1 1.367-.366L12 10.854l8.23-4.76a1 1 0 1 1 1 1.732l-8.73 5.05a1 1 0 0 1-1 0l-8.73-5.05a1 1 0 0 1-.366-1.367"
        clip-rule="evenodd"
      ></path>
      <path
        fill="currentColor"
        fill-rule="evenodd"
        d="M12 11a1 1 0 0 1 1 1v10.08a1 1 0 1 1-2 0V12a1 1 0 0 1 1-1"
        clip-rule="evenodd"
      ></path>
    </symbol>
    <symbol fill="none" viewBox="0 0 24 24" id="scheduler">
      <path
        fill="currentColor"
        fill-rule="evenodd"
        d="M5 5a1 1 0 0 0-1 1v14a1 1 0 0 0 1 1h14a1 1 0 0 0 1-1V6a1 1 0 0 0-1-1zM2 6a3 3 0 0 1 3-3h14a3 3 0 0 1 3 3v14a3 3 0 0 1-3 3H5a3 3 0 0 1-3-3z"
        clip-rule="evenodd"
      ></path>
      <path
        fill="currentColor"
        fill-rule="evenodd"
        d="M16 1a1 1 0 0 1 1 1v4a1 1 0 1 1-2 0V2a1 1 0 0 1 1-1M8 1a1 1 0 0 1 1 1v4a1 1 0 1 1-2 0V2a1 1 0 0 1 1-1m-6 9a1 1 0 0 1 1-1h18a1 1 0 1 1 0 2H3a1 1 0 0 1-1-1"
        clip-rule="evenodd"
      ></path>
    </symbol>
    <symbol fill="none" viewBox="0 0 24 24" id="settings">
      <g
        stroke="currentColor"
        stroke-linecap="round"
        stroke-linejoin="round"
        stroke-width="2"
        clip-path="url(#a)"
      >
        <path d="M12 15a3 3 0 1 0 0-6 3 3 0 0 0 0 6"></path>
        <path
          d="M19.4 15a1.65 1.65 0 0 0 .33 1.82l.06.06a1.998 1.998 0 0 1 0 2.83 1.998 1.998 0 0 1-2.83 0l-.06-.06a1.65 1.65 0 0 0-1.82-.33 1.65 1.65 0 0 0-1 1.51V21a2 2 0 0 1-4 0v-.09A1.65 1.65 0 0 0 9 19.4a1.65 1.65 0 0 0-1.82.33l-.06.06a1.998 1.998 0 0 1-2.83 0 2 2 0 0 1 0-2.83l.06-.06a1.65 1.65 0 0 0 .33-1.82 1.65 1.65 0 0 0-1.51-1H3a2 2 0 1 1 0-4h.09A1.65 1.65 0 0 0 4.6 9a1.65 1.65 0 0 0-.33-1.82l-.06-.06a2 2 0 1 1 2.83-2.83l.06.06a1.65 1.65 0 0 0 1.82.33H9a1.65 1.65 0 0 0 1-1.51V3a2 2 0 1 1 4 0v.09a1.65 1.65 0 0 0 1 1.51 1.65 1.65 0 0 0 1.82-.33l.06-.06a2 2 0 0 1 3.417 1.415 2 2 0 0 1-.587 1.415l-.06.06a1.65 1.65 0 0 0-.33 1.82V9a1.65 1.65 0 0 0 1.51 1H21a2 2 0 0 1 0 4h-.09a1.65 1.65 0 0 0-1.51 1"
        ></path>
      </g>
      <defs>
        <clipPath id="a">
          <path fill="currentColor" d="M0 0h24v24H0z"></path>
        </clipPath>
      </defs>
    </symbol>
    <symbol fill="none" viewBox="0 0 24 24" id="site">
      <path
        fill="currentColor"
        fill-rule="evenodd"
        d="M7 3a1 1 0 0 0-1 1v16a1 1 0 0 0 1 1h10a1 1 0 0 0 1-1V4a1 1 0 0 0-1-1zM4 4a3 3 0 0 1 3-3h10a3 3 0 0 1 3 3v16a3 3 0 0 1-3 3H7a3 3 0 0 1-3-3z"
        clip-rule="evenodd"
      ></path>
      <path
        fill="currentColor"
        fill-rule="evenodd"
        d="M11 18a1 1 0 0 1 1-1h.009a1 1 0 1 1 0 2H12a1 1 0 0 1-1-1"
        clip-rule="evenodd"
      ></path>
    </symbol>
    <symbol fill="none" viewBox="0 0 24 24" id="tiktok">
      <path
        fill="currentColor"
        d="M12.038 1.018C13.24 1 14.431 1.01 15.622 1c.074 1.402.578 2.832 1.605 3.822 1.026 1.018 2.474 1.485 3.886 1.641v3.694c-1.32-.045-2.649-.32-3.85-.889-.522-.238-1.008-.54-1.485-.852-.009 2.676.01 5.353-.018 8.02a7.001 7.001 0 0 1-1.238 3.612c-1.2 1.76-3.281 2.906-5.417 2.943-1.31.073-2.622-.285-3.74-.945-1.852-1.09-3.153-3.089-3.346-5.234a16.998 16.998 0 0 1-.009-1.366A6.88 6.88 0 0 1 4.375 10.9c1.522-1.32 3.648-1.953 5.637-1.577.019 1.357-.036 2.714-.036 4.07-.908-.293-1.971-.21-2.769.34a3.184 3.184 0 0 0-1.246 1.603c-.193.468-.138.981-.129 1.476.22 1.504 1.669 2.769 3.209 2.631 1.026-.01 2.007-.605 2.539-1.476.174-.302.367-.614.376-.971.091-1.641.055-3.273.064-4.914.009-3.694-.01-7.379.018-11.064"
      ></path>
    </symbol>
    <symbol fill="none" viewBox="0 0 24 24" id="twitter">
      <path
        fill="currentColor"
        d="m14.021 10.368 7.936-9.035h-1.88l-6.894 7.843-5.502-7.843H1.333l8.323 11.86-8.323 9.474h1.88l7.276-8.284 5.812 8.284h6.348zm-2.576 2.93-.844-1.182-6.71-9.394h2.89l5.415 7.584.841 1.182 7.04 9.858h-2.89z"
      ></path>
    </symbol>
    <symbol fill="none" viewBox="0 0 24 24" id="wellness">
      <path
        fill="currentColor"
        fill-rule="evenodd"
        d="M17 9a1 1 0 0 1 1-1h1a5 5 0 1 1 0 10h-1a1 1 0 1 1 0-2h1a3 3 0 0 0 0-6h-1a1 1 0 0 1-1-1"
        clip-rule="evenodd"
      ></path>
      <path
        fill="currentColor"
        fill-rule="evenodd"
        d="M1 9a1 1 0 0 1 1-1h16a1 1 0 0 1 1 1v9a5 5 0 0 1-5 5H6a5 5 0 0 1-5-5zm2 1v8a3 3 0 0 0 3 3h8a3 3 0 0 0 3-3v-8zm3-9a1 1 0 0 1 1 1v3a1 1 0 1 1-2 0V2a1 1 0 0 1 1-1m4 0a1 1 0 0 1 1 1v3a1 1 0 1 1-2 0V2a1 1 0 0 1 1-1m4 0a1 1 0 0 1 1 1v3a1 1 0 1 1-2 0V2a1 1 0 0 1 1-1"
        clip-rule="evenodd"
      ></path>
    </symbol>
    <symbol fill="none" viewBox="0 0 24 24" id="youtube">
      <path
        fill="currentColor"
        d="M6.757 16.794v-3.492h1.31V12.08h-3.93v1.048H5.36v7.158h1.397zm10.913-.262v-.96c.174-.262.349-.436.61-.436.263 0 .35.087.524.262v1.222h-1.047zm1.047 3.842c.611-.175.96-.524 1.135-1.048v-1.048h-.873v.35c0 .436-.087.61-.262.698-.174.175-.436.175-.698 0-.175-.087-.262-.35-.262-1.222v-.611h2.27v-.873c0-1.048 0-1.223-.262-1.572-.262-.698-1.222-1.047-1.92-.785-.612.261-.874.61-1.048 1.135v1.92c0 1.746 0 1.92.174 2.27.262.611 1.135.96 1.834.786zm-4.365-1.048.175-.175v-3.666c-.175-.35-.524-.35-.873-.087v3.84c.262.175.524.175.698.088m.698 1.048c.175 0 .35-.262.437-.437.175-.436.175-.436.175-2.619v-2.27c-.175-.61-.524-.873-1.048-.873-.262 0-.524.175-.873.437l-.175.262v-2.707H12.52v8.12h1.047v-.524s.175 0 .262.174c.437.35.786.524 1.223.35zm-5.587 0 .699-.437c0-.174.174-.174.174-.174v.61h1.048v-6.11h-1.048v4.714l-.174.174c-.175.262-.262.262-.35.262h-.436v-5.238H8.328v2.62l.088 3.23c.174.349.61.436 1.047.261zm.437 2.531a128.61 128.61 0 0 1-5.5-.262c-.35 0-.873-.349-1.048-.698-.436-.524-.698-1.135-.786-2.008-.261-2.27-.261-4.801 0-6.984.175-.873.437-1.571.873-2.095.233-.258.537-.44.873-.524a95.592 95.592 0 0 1 15.016 0c.786 0 1.31.437 1.746 1.222.608 2.929.726 5.938.35 8.905-.262.786-.611 1.484-1.048 1.746-.35.35-.699.436-1.31.524h-.523c-2.879.152-5.761.21-8.643.174M8.154 9.374c-.088 0-.088-2.445 0-2.794a41.556 41.556 0 0 1-.786-2.88l-.786-2.62h1.31l.436 1.571.35 1.485.349-1.048.524-2.008h1.31v.087l-.874 2.794-.262.873-.262.873-.087.262V9.46l-1.31-.087zm7.595.087c-.35 0-.524-.175-.611-.35-.175-.348-.175-.348-.175-3.23V3.264h1.223v2.444c0 2.62 0 2.62.174 2.62.175.086.262 0 .524-.176l.174-.261V3.175h1.223v6.199h-1.135l-.088-.262V8.85l-.174.087c-.35.437-.786.611-1.135.524m-2.968-1.135c.174-.175.174-.175.174-1.92V4.658c-.087-.262-.174-.436-.349-.436-.262-.087-.524 0-.611.35v3.491l.35.35zm-.524 1.135c-.524 0-.96-.35-1.222-.786-.262-.436-.262-.698-.262-2.619l.087-1.746c.175-.436.437-.873.873-1.047a1.746 1.746 0 0 1 1.746.087c.262.262.524.611.611 1.047v1.921c0 1.746 0 1.833-.174 2.27a1.659 1.659 0 0 1-1.66.873"
      ></path>
    </symbol>
    <symbol fill="none" viewBox="0 0 24 24" id="arrow-up">
      <path
        fill="currentColor"
        d="M12.027 4.381 4.763 9.117v4.32l5.536-3.328v9.504h3.456v-9.472l5.472 3.296v-4.32z"
      ></path>
    </symbol>
    <symbol fill="none" viewBox="0 0 24 24" id="sharea">
      <path
        fill="currentColor"
        d="M13.833 9a12.81 12.81 0 0 0-12.425 9.7l-.075.3c3.204-3.2 7.547-5 12.075-5h.425v5l7.5-7.5-7.5-7.5z"
      ></path>
    </symbol>
  </defs>
</svg>
